<svg width="40" height="40" viewBox="0 0 40 40" fill="none" xmlns="http://www.w3.org/2000/svg">
<path d="M4.76935 22.874L17.9757 35.2034C18.5239 35.715 19.2474 36 20.0002 36C20.7529 36 21.4765 35.715 22.0246 35.2034L35.231 22.874C37.4528 20.8057 38.7098 17.9043 38.7098 14.8713V14.4474C38.7098 9.33876 35.019 4.98292 29.9835 4.14245C26.6509 3.58701 23.2597 4.67597 20.8772 7.05852L20.0002 7.93554L19.1232 7.05852C16.7406 4.67597 13.3495 3.58701 10.0168 4.14245C4.9813 4.98292 1.29053 9.33876 1.29053 14.4474V14.8713C1.29053 17.9043 2.54758 20.8057 4.76935 22.874Z" fill="#DB2777"/>
</svg>
