<?xml version="1.0" encoding="UTF-8"?>
<svg id="Layer_1" data-name="Layer 1" xmlns="http://www.w3.org/2000/svg" viewBox="0 0 188.06 53.49">
  <g>
    <g>
      <path d="m72.36,23.94c-1.11,0-2.17-.15-3.19-.45-1.02-.3-1.84-.68-2.46-1.16l1.09-2.41c.58.42,1.28.77,2.1,1.04.82.27,1.64.41,2.47.41.63,0,1.14-.07,1.53-.2.39-.13.68-.31.86-.52.18-.22.28-.47.28-.76,0-.37-.15-.66-.44-.88-.29-.22-.68-.4-1.16-.53-.48-.14-1.01-.27-1.57-.4-.57-.13-1.14-.28-1.71-.46-.57-.18-1.1-.42-1.58-.71-.48-.3-.86-.69-1.15-1.17-.28-.48-.43-1.08-.43-1.81,0-.79.21-1.51.63-2.17s1.06-1.17,1.93-1.56,1.95-.58,3.25-.58c.87,0,1.73.11,2.58.32.85.21,1.59.51,2.22.91l-1.01,2.41c-.62-.36-1.26-.62-1.92-.8-.66-.18-1.29-.27-1.9-.27s-1.14.07-1.52.21c-.38.14-.66.33-.84.56-.18.24-.27.5-.27.79,0,.37.15.67.44.89.29.22.67.4,1.15.52.47.13,1,.25,1.58.38.58.12,1.15.28,1.72.46.57.18,1.09.42,1.56.7.47.28.86.67,1.16,1.15.3.48.44,1.08.44,1.79,0,.78-.21,1.49-.64,2.14-.43.65-1.08,1.17-1.95,1.56-.87.39-1.96.59-3.26.59Z" style="fill: #111827; stroke-width: 0px;"/>
      <path d="m83.26,23.71v-11.23h-4.43v-2.61h12.06v2.61h-4.43v11.23h-3.2Z" style="fill: #111827; stroke-width: 0px;"/>
      <path d="m93.56,23.87c-.53,0-.98-.18-1.35-.54-.38-.36-.56-.82-.56-1.37s.19-1.05.56-1.4c.38-.36.83-.53,1.35-.53s1,.18,1.36.53c.37.36.55.82.55,1.4s-.18,1.01-.55,1.37c-.37.36-.82.54-1.36.54Z" style="fill: #111827; stroke-width: 0px;"/>
      <path d="m103.39,23.71v-13.84h5.99c1.24,0,2.31.2,3.2.6.9.4,1.59.98,2.08,1.73.49.75.73,1.64.73,2.67s-.24,1.93-.73,2.68c-.49.75-1.18,1.32-2.08,1.73-.9.41-1.96.61-3.2.61h-4.23l1.46-1.44v5.26h-3.22Zm3.22-4.9l-1.46-1.52h4.05c.98,0,1.71-.21,2.21-.63s.75-1.02.75-1.78-.25-1.35-.75-1.77-1.24-.62-2.21-.62h-4.05l1.46-1.52v7.85Z" style="fill: #111827; stroke-width: 0px;"/>
      <path d="m121.02,21.14h7.53v2.57h-10.72v-13.84h10.46v2.57h-7.28v8.7Zm-.24-5.71h6.66v2.51h-6.66v-2.51Z" style="fill: #111827; stroke-width: 0px;"/>
      <path d="m133.97,23.71v-11.23h-4.43v-2.61h12.06v2.61h-4.43v11.23h-3.2Z" style="fill: #111827; stroke-width: 0px;"/>
      <path d="m146.51,21.14h7.53v2.57h-10.72v-13.84h10.46v2.57h-7.28v8.7Zm-.24-5.71h6.66v2.51h-6.66v-2.51Z" style="fill: #111827; stroke-width: 0px;"/>
      <path d="m156.6,23.71v-13.84h5.99c1.24,0,2.31.2,3.2.6.9.4,1.59.98,2.08,1.73.49.75.73,1.64.73,2.67s-.24,1.93-.73,2.68c-.49.75-1.18,1.31-2.08,1.7-.9.39-1.96.58-3.2.58h-4.23l1.46-1.38v5.26h-3.22Zm3.22-4.9l-1.46-1.52h4.05c.98,0,1.71-.21,2.21-.63s.75-1.02.75-1.78-.25-1.35-.75-1.77-1.24-.62-2.21-.62h-4.05l1.46-1.52v7.85Zm5.6,4.9l-3.48-5.02h3.44l3.48,5.02h-3.44Z" style="fill: #111827; stroke-width: 0px;"/>
      <path d="m170.38,15.6l1.3-4.75.44,1.8c-.55,0-1.01-.17-1.38-.5-.36-.34-.54-.79-.54-1.35s.18-1.04.55-1.39c.37-.35.82-.52,1.36-.52s1.01.18,1.36.52c.36.35.53.81.53,1.39,0,.16,0,.32-.03.49-.02.16-.07.36-.15.58-.08.22-.2.52-.36.89l-1.13,2.85h-1.98Z" style="fill: #111827; stroke-width: 0px;"/>
      <path d="m180.9,23.94c-1.11,0-2.17-.15-3.19-.45-1.02-.3-1.84-.68-2.46-1.16l1.09-2.41c.58.42,1.28.77,2.1,1.04s1.64.41,2.47.41c.63,0,1.14-.07,1.53-.2.39-.13.67-.31.86-.52.18-.22.28-.47.28-.76,0-.37-.15-.66-.43-.88-.29-.22-.68-.4-1.16-.53-.48-.14-1-.27-1.57-.4-.57-.13-1.14-.28-1.71-.46s-1.1-.42-1.58-.71-.86-.69-1.15-1.17c-.28-.48-.42-1.08-.42-1.81,0-.79.21-1.51.63-2.17.42-.65,1.06-1.17,1.93-1.56.86-.39,1.95-.58,3.25-.58.87,0,1.73.11,2.58.32.85.21,1.59.51,2.22.91l-1.01,2.41c-.62-.36-1.26-.62-1.92-.8-.66-.18-1.29-.27-1.9-.27s-1.14.07-1.52.21c-.38.14-.66.33-.84.56-.18.24-.27.5-.27.79,0,.37.15.67.44.89.29.22.67.4,1.15.52.47.13,1,.25,1.58.38s1.15.28,1.72.46c.57.18,1.09.42,1.56.7.47.28.86.67,1.16,1.15.3.48.45,1.08.45,1.79,0,.78-.21,1.49-.64,2.14-.43.65-1.08,1.17-1.95,1.56-.87.39-1.96.59-3.26.59Z" style="fill: #111827; stroke-width: 0px;"/>
    </g>
    <g>
      <path d="m67.52,46.05v-18.03h4.15v18.03h-4.15Zm3.71-4.12l-.21-4.82,8.63-9.09h4.64l-7.75,8.37-2.37,2.47-2.94,3.07Zm8.63,4.12l-6.41-7.83,2.73-2.99,8.58,10.82h-4.89Z" style="fill: #111827; stroke-width: 0px;"/>
      <path d="m86.82,46.05v-18.03h4.2v18.03h-4.2Z" style="fill: #111827; stroke-width: 0px;"/>
      <path d="m99.21,46.05v-14.63h-5.77v-3.4h15.71v3.4h-5.77v14.63h-4.17Z" style="fill: #111827; stroke-width: 0px;"/>
      <path d="m120.23,46.36c-1.39,0-2.68-.23-3.88-.68-1.19-.45-2.23-1.1-3.1-1.94s-1.56-1.83-2.05-2.96c-.49-1.13-.73-2.38-.73-3.74s.24-2.6.73-3.74c.49-1.13,1.18-2.12,2.06-2.96.88-.84,1.92-1.49,3.12-1.94,1.19-.46,2.49-.68,3.88-.68,1.56,0,2.98.27,4.25.81,1.27.54,2.33,1.33,3.19,2.38l-2.71,2.47c-.6-.7-1.28-1.24-2.05-1.6-.76-.36-1.59-.54-2.49-.54-.84,0-1.61.14-2.32.42s-1.31.68-1.83,1.2c-.52.51-.92,1.12-1.2,1.83s-.42,1.49-.42,2.34.14,1.64.42,2.34.68,1.31,1.2,1.83c.52.51,1.12.91,1.83,1.2s1.48.43,2.32.43c.89,0,1.72-.18,2.49-.55.76-.37,1.45-.91,2.05-1.61l2.71,2.47c-.86,1.05-1.92,1.85-3.19,2.4-1.27.55-2.7.83-4.28.83Z" style="fill: #111827; stroke-width: 0px;"/>
      <path d="m134.86,46.05h-4.2v-18.03h4.2v18.03Zm8.48-7.39h-8.81v-3.53h8.81v3.53Zm-.31-10.64h4.17v18.03h-4.17v-18.03Z" style="fill: #111827; stroke-width: 0px;"/>
      <path d="m155.83,42.7h9.81v3.35h-13.96v-18.03h13.63v3.35h-9.48v11.33Zm-.31-7.45h8.68v3.27h-8.68v-3.27Z" style="fill: #111827; stroke-width: 0px;"/>
      <path d="m169.17,46.05v-18.03h3.45l10.64,12.98h-1.67v-12.98h4.12v18.03h-3.45l-10.64-12.98h1.67v12.98h-4.12Z" style="fill: #111827; stroke-width: 0px;"/>
    </g>
  </g>
  <g id="Refreshed">
    <g id="Green_Angle">
      <path id="Shape" d="m26.41,11.65c.18-.31,2.56-4.85,8.68-4.74,10.15.19,9.03,10.12,9.03,10.12,0,0-3.39-4.78-8.84-4.11-5.86.72-7.06,3.51-8.88,10.79h0v-12.06Z" style="fill: #00523d; stroke-width: 0px;"/>
      <path id="Shape-2" d="m26.41,11.65c-.18-.31-2.56-4.85-8.68-4.74-10.15.19-9.03,10.12-9.03,10.12,0,0,3.39-4.78,8.84-4.11,5.86.72,7.06,3.51,8.88,10.79h0v-12.06Z" style="fill: #006f53; stroke-width: 0px;"/>
      <circle cx="26.41" cy="3.67" r="3.67" style="fill: #006f53; stroke-width: 0px;"/>
    </g>
    <g id="Blue_Angle">
      <path id="Shape-3" d="m42.25,38.86c.18.31,2.92,4.64-.24,9.89-5.24,8.7-13.28,2.77-13.28,2.77,0,0,5.83-.55,7.98-5.6,2.31-5.44.49-7.87-4.91-13.08h0l10.44,6.03Z" style="fill: #315271; stroke-width: 0px;"/>
      <path id="Shape-4" d="m42.25,38.86c.36,0,5.48.21,8.45-5.15,4.92-8.89-4.24-12.88-4.24-12.88,0,0,2.44,5.33-.86,9.71-3.55,4.72-6.57,4.36-13.78,2.29h0l10.44,6.03Z" style="fill: #426a8f; stroke-width: 0px;"/>
      <circle cx="49.16" cy="42.85" r="3.67" style="fill: #426a8f; stroke-width: 0px;"/>
    </g>
    <g id="Pink_Angle">
      <path id="Shape-5" d="m10.58,38.86c-.36,0-5.48.21-8.45-5.15-4.92-8.89,4.24-12.88,4.24-12.88,0,0-2.44,5.33.86,9.71,3.55,4.72,6.57,4.36,13.78,2.29h0l-10.44,6.03Z" style="fill: #84476e; stroke-width: 0px;"/>
      <path id="Shape-6" d="m10.58,38.86c-.18.31-2.92,4.64.24,9.89,5.24,8.7,13.28,2.77,13.28,2.77,0,0-5.83-.55-7.98-5.6-2.31-5.44-.49-7.87,4.91-13.08h0l-10.44,6.03Z" style="fill: #b05e95; stroke-width: 0px;"/>
      <circle cx="3.67" cy="42.85" r="3.67" style="fill: #b05e95; stroke-width: 0px;"/>
    </g>
  </g>
</svg>