<?xml version="1.0" encoding="UTF-8"?>
<svg id="Layer_1" data-name="Layer 1" xmlns="http://www.w3.org/2000/svg" viewBox="0 0 52.83 53.49">
  <g id="Refreshed">
    <g>
      <path id="Shape" d="m26.41,11.65c.18-.31,2.56-4.85,8.68-4.74,10.15.19,9.03,10.12,9.03,10.12,0,0-3.39-4.78-8.84-4.11-5.86.72-7.06,3.51-8.88,10.79h0v-12.06Z" style="fill: #00523d; stroke-width: 0px;"/>
      <path id="Shape-2" d="m26.41,11.65c-.18-.31-2.56-4.85-8.68-4.74-10.15.19-9.03,10.12-9.03,10.12,0,0,3.39-4.78,8.84-4.11,5.86.72,7.06,3.51,8.88,10.79h0v-12.06Z" style="fill: #006f53; stroke-width: 0px;"/>
      <circle cx="26.41" cy="3.67" r="3.67" style="fill: #006f53; stroke-width: 0px;"/>
    </g>
    <g>
      <path id="Shape-3" d="m42.25,38.86c.18.31,2.92,4.64-.24,9.89-5.24,8.7-13.28,2.77-13.28,2.77,0,0,5.83-.55,7.98-5.6,2.31-5.44.49-7.87-4.91-13.08h0l10.44,6.03Z" style="fill: #315271; stroke-width: 0px;"/>
      <path id="Shape-4" d="m42.25,38.86c.36,0,5.48.21,8.45-5.15,4.92-8.89-4.24-12.88-4.24-12.88,0,0,2.44,5.33-.86,9.71-3.55,4.72-6.57,4.36-13.78,2.29h0l10.44,6.03Z" style="fill: #426a8f; stroke-width: 0px;"/>
      <circle cx="49.16" cy="42.85" r="3.67" style="fill: #426a8f; stroke-width: 0px;"/>
    </g>
    <g>
      <path id="Shape-5" d="m10.58,38.86c-.36,0-5.48.21-8.45-5.15-4.92-8.89,4.24-12.88,4.24-12.88,0,0-2.44,5.33.86,9.71,3.55,4.72,6.57,4.36,13.78,2.29h0l-10.44,6.03Z" style="fill: #84476e; stroke-width: 0px;"/>
      <path id="Shape-6" d="m10.58,38.86c-.18.31-2.92,4.64.24,9.89,5.24,8.7,13.28,2.77,13.28,2.77,0,0-5.83-.55-7.98-5.6-2.31-5.44-.49-7.87,4.91-13.08h0l-10.44,6.03Z" style="fill: #b05e95; stroke-width: 0px;"/>
      <circle cx="3.67" cy="42.85" r="3.67" style="fill: #b05e95; stroke-width: 0px;"/>
    </g>
  </g>
</svg>